<svg xmlns="http://www.w3.org/2000/svg" xmlns:xlink="http://www.w3.org/1999/xlink" width="500" zoomAndPan="magnify" viewBox="0 0 375 374.999991" height="500" preserveAspectRatio="xMidYMid meet" version="1.2"><defs><clipPath id="0d90839b77"><path d="M 21.613281 71 L 293 71 L 293 304 L 21.613281 304 Z M 21.613281 71 "/></clipPath><clipPath id="ac452dc030"><path d="M 77 17.140625 L 351 17.140625 L 351 357.640625 L 77 357.640625 Z M 77 17.140625 "/></clipPath></defs><g id="00ec58de53"><g clip-rule="nonzero" clip-path="url(#0d90839b77)"><path style=" stroke:none;fill-rule:nonzero;fill:#d9211b;fill-opacity:1;" d="M 256.304688 191.347656 C 254.1875 234.140625 217.269531 266.992188 174.429688 266.992188 L 132.011719 266.992188 L 132.011719 303.1875 L 173.898438 303.1875 C 236.632812 303.1875 290.136719 254.496094 292.503906 191.800781 C 294.996094 125.894531 242.105469 71.480469 176.742188 71.480469 L 21.703125 71.480469 L 21.703125 303.1875 C 41.6875 303.1875 57.894531 286.980469 57.894531 266.992188 L 57.894531 107.675781 L 176.742188 107.675781 C 221.996094 107.675781 258.5625 145.609375 256.304688 191.347656 "/></g><g clip-rule="nonzero" clip-path="url(#ac452dc030)"><path style=" stroke:none;fill-rule:nonzero;fill:#1800ad;fill-opacity:1;" d="M 176.417969 17.125 L 77.726562 17.125 C 77.726562 37.113281 93.929688 53.316406 113.914062 53.316406 L 176.746094 53.316406 C 249.316406 53.316406 311.210938 109.636719 313.957031 182.15625 C 316.847656 258.398438 255.652344 321.351562 180.039062 321.351562 L 113.914062 321.351562 L 113.914062 126.265625 L 77.726562 126.265625 L 77.726562 357.539062 L 180.039062 357.539062 C 275.605469 357.539062 353.027344 278.371094 350.171875 182.175781 C 347.417969 89.601562 269.035156 17.125 176.417969 17.125 "/></g></g></svg>