<svg xmlns="http://www.w3.org/2000/svg" xmlns:xlink="http://www.w3.org/1999/xlink" width="500" zoomAndPan="magnify" viewBox="0 0 375 374.999991" height="500" preserveAspectRatio="xMidYMid meet" version="1.2"><defs><clipPath id="f7c468173b"><path d="M 151 119 L 219 119 L 219 317 L 151 317 Z M 151 119 "/></clipPath><clipPath id="fcd3ecdd59"><path d="M 214.777344 118.726562 L 220.398438 120.597656 L 154.792969 317.652344 L 149.171875 315.78125 Z M 214.777344 118.726562 "/></clipPath><clipPath id="cc192aa8e9"><path d="M 218.050781 120.523438 L 215.546875 129.855469 C 213.761719 136.507812 211.855469 143.128906 209.828125 149.714844 L 207.429688 157.492188 C 203.804688 169.265625 200.085938 181.007812 196.269531 192.71875 L 194.828125 197.144531 C 190.054688 211.804688 185.183594 226.4375 180.21875 241.035156 L 178.71875 245.441406 C 174.75 257.101562 170.691406 268.730469 166.535156 280.324219 L 163.792969 287.988281 C 161.46875 294.472656 159.027344 300.917969 156.464844 307.3125 L 152.878906 316.285156 C 152.738281 316.632812 152.347656 316.816406 151.988281 316.695312 C 151.628906 316.578125 151.425781 316.199219 151.523438 315.832031 L 154.027344 306.5 C 155.8125 299.847656 157.722656 293.226562 159.75 286.644531 L 162.144531 278.863281 C 165.773438 267.09375 169.492188 255.351562 173.304688 243.640625 L 174.746094 239.214844 C 179.523438 224.550781 184.394531 209.921875 189.359375 195.324219 L 190.859375 190.914062 C 194.828125 179.253906 198.886719 167.628906 203.039062 156.03125 L 205.785156 148.367188 C 208.109375 141.882812 210.550781 135.441406 213.109375 129.042969 L 216.699219 120.074219 C 216.839844 119.722656 217.230469 119.542969 217.589844 119.660156 C 217.945312 119.78125 218.148438 120.160156 218.050781 120.523438 Z M 218.050781 120.523438 "/></clipPath><clipPath id="8906b928a1"><path d="M 147 105 L 214 105 L 214 303 L 147 303 Z M 147 105 "/></clipPath><clipPath id="313ac7be24"><path d="M 210.964844 104.648438 L 215.894531 106.292969 L 150.292969 303.332031 L 145.363281 301.691406 Z M 210.964844 104.648438 "/></clipPath><clipPath id="7c8b15ae77"><path d="M 213.832031 106.226562 L 211.238281 115.613281 C 209.40625 122.253906 207.464844 128.863281 205.421875 135.4375 L 203.003906 143.214844 C 199.34375 154.972656 195.601562 166.707031 191.78125 178.414062 L 190.335938 182.839844 C 185.546875 197.5 180.675781 212.128906 175.722656 226.730469 L 174.226562 231.140625 C 170.269531 242.804688 166.230469 254.4375 162.109375 266.042969 L 159.382812 273.71875 C 157.078125 280.207031 154.671875 286.660156 152.160156 293.074219 L 148.605469 302.144531 C 148.484375 302.449219 148.144531 302.609375 147.832031 302.507812 C 147.515625 302.402344 147.339844 302.070312 147.429688 301.75 L 150.019531 292.363281 C 151.855469 285.722656 153.792969 279.113281 155.839844 272.539062 L 158.257812 264.761719 C 161.917969 253.003906 165.65625 241.269531 169.480469 229.5625 L 170.925781 225.136719 C 175.714844 210.476562 180.585938 195.847656 185.539062 181.246094 L 187.035156 176.835938 C 190.992188 165.171875 195.03125 153.539062 199.152344 141.933594 L 201.878906 134.257812 C 204.183594 127.769531 206.589844 121.316406 209.101562 114.902344 L 212.65625 105.832031 C 212.773438 105.527344 213.117188 105.367188 213.429688 105.472656 C 213.742188 105.574219 213.921875 105.90625 213.832031 106.226562 Z M 213.832031 106.226562 "/></clipPath><clipPath id="471cc1394f"><path d="M 143 92 L 211 92 L 211 291 L 143 291 Z M 143 92 "/></clipPath><clipPath id="c3536c4974"><path d="M 208 92.363281 L 211.699219 93.597656 L 146.097656 290.640625 L 142.398438 289.410156 Z M 208 92.363281 "/></clipPath><clipPath id="5b77eb310b"><path d="M 210.148438 93.546875 L 207.394531 103.035156 C 205.476562 109.648438 203.480469 116.234375 201.402344 122.796875 L 198.941406 130.5625 C 195.226562 142.304688 191.449219 154.027344 187.609375 165.726562 L 186.15625 170.152344 C 181.347656 184.804688 176.480469 199.433594 171.542969 214.042969 L 170.054688 218.457031 C 166.113281 230.121094 162.113281 241.769531 158.046875 253.394531 L 155.359375 261.085938 C 153.089844 267.582031 150.738281 274.054688 148.3125 280.496094 L 144.828125 289.742188 C 144.742188 289.972656 144.488281 290.09375 144.253906 290.015625 C 144.015625 289.9375 143.886719 289.6875 143.957031 289.449219 L 146.710938 279.960938 C 148.628906 273.351562 150.625 266.761719 152.703125 260.203125 L 155.160156 252.433594 C 158.875 240.691406 162.65625 228.972656 166.492188 217.269531 L 167.945312 212.84375 C 172.753906 198.195312 177.625 183.5625 182.558594 168.953125 L 184.050781 164.542969 C 187.988281 152.875 191.992188 141.226562 196.054688 129.601562 L 198.742188 121.910156 C 201.015625 115.414062 203.363281 108.941406 205.789062 102.503906 L 209.273438 93.253906 C 209.363281 93.023438 209.617188 92.902344 209.851562 92.980469 C 210.085938 93.058594 210.21875 93.308594 210.148438 93.546875 Z M 210.148438 93.546875 "/></clipPath><clipPath id="a2817e20c8"><path d="M 143 75 L 211 75 L 211 273 L 143 273 Z M 143 75 "/></clipPath><clipPath id="740ebafc93"><path d="M 208 75.332031 L 211.472656 76.488281 L 145.871094 273.523438 L 142.398438 272.367188 Z M 208 75.332031 "/></clipPath><clipPath id="153aa67603"><path d="M 210.011719 76.4375 L 207.230469 85.949219 C 205.296875 92.554688 203.289062 99.136719 201.203125 105.695312 L 198.738281 113.460938 C 195.011719 125.199219 191.226562 136.917969 187.386719 148.617188 L 185.933594 153.042969 C 181.121094 167.695312 176.25 182.324219 171.320312 196.933594 L 169.828125 201.347656 C 165.890625 213.015625 161.898438 224.664062 157.84375 236.292969 L 155.164062 243.988281 C 152.898438 250.488281 150.558594 256.960938 148.148438 263.40625 L 144.675781 272.6875 C 144.59375 272.902344 144.355469 273.015625 144.136719 272.945312 C 143.917969 272.871094 143.792969 272.636719 143.859375 272.414062 L 146.640625 262.90625 C 148.578125 256.300781 150.585938 249.71875 152.667969 243.15625 L 155.132812 235.390625 C 158.859375 223.652344 162.644531 211.933594 166.488281 200.234375 L 167.941406 195.808594 C 172.753906 181.160156 177.625 166.527344 182.554688 151.917969 L 184.042969 147.503906 C 187.980469 135.835938 191.976562 124.1875 196.027344 112.558594 L 198.710938 104.863281 C 200.972656 98.367188 203.3125 91.894531 205.722656 85.445312 L 209.195312 76.167969 C 209.277344 75.949219 209.515625 75.835938 209.734375 75.910156 C 209.957031 75.980469 210.078125 76.214844 210.011719 76.4375 Z M 210.011719 76.4375 "/></clipPath></defs><g id="29144e374a"><g clip-rule="nonzero" clip-path="url(#f7c468173b)"><g clip-rule="nonzero" clip-path="url(#fcd3ecdd59)"><g clip-rule="nonzero" clip-path="url(#cc192aa8e9)"><path style=" stroke:none;fill-rule:nonzero;fill:#1800ad;fill-opacity:1;" d="M 214.710938 118.703125 L 220.464844 120.621094 L 154.867188 317.652344 L 149.109375 315.738281 Z M 214.710938 118.703125 "/></g></g></g><g clip-rule="nonzero" clip-path="url(#8906b928a1)"><g clip-rule="nonzero" clip-path="url(#313ac7be24)"><g clip-rule="nonzero" clip-path="url(#7c8b15ae77)"><path style=" stroke:none;fill-rule:nonzero;fill:#004aad;fill-opacity:1;" d="M 210.90625 104.628906 L 215.953125 106.3125 L 150.351562 303.351562 L 145.304688 301.671875 Z M 210.90625 104.628906 "/></g></g></g><g clip-rule="nonzero" clip-path="url(#471cc1394f)"><g clip-rule="nonzero" clip-path="url(#c3536c4974)"><g clip-rule="nonzero" clip-path="url(#5b77eb310b)"><path style=" stroke:none;fill-rule:nonzero;fill:#5170ff;fill-opacity:1;" d="M 207.957031 92.351562 L 211.746094 93.613281 L 146.148438 290.640625 L 142.359375 289.378906 Z M 207.957031 92.351562 "/></g></g></g><g clip-rule="nonzero" clip-path="url(#a2817e20c8)"><g clip-rule="nonzero" clip-path="url(#740ebafc93)"><g clip-rule="nonzero" clip-path="url(#153aa67603)"><path style=" stroke:none;fill-rule:nonzero;fill:#ff3131;fill-opacity:1;" d="M 207.957031 75.316406 L 211.515625 76.5 L 145.914062 273.539062 L 142.359375 272.351562 Z M 207.957031 75.316406 "/></g></g></g></g></svg>